<svg xmlns="http://www.w3.org/2000/svg" xmlns:xlink="http://www.w3.org/1999/xlink" width="500" zoomAndPan="magnify" viewBox="0 0 375 374.999991" height="500" preserveAspectRatio="xMidYMid meet" version="1.0"><defs><g/><clipPath id="ad97dd75b6"><path d="M 78.253906 131.105469 L 159.925781 131.105469 L 159.925781 228 L 78.253906 228 Z M 78.253906 131.105469 " clip-rule="nonzero"/></clipPath><clipPath id="8ffcaf9952"><path d="M 60.960938 166.285156 L 141.660156 166.285156 L 141.660156 237.09375 L 60.960938 237.09375 Z M 60.960938 166.285156 " clip-rule="nonzero"/></clipPath></defs><path fill="#805ad5" d="M 105.195312 142.914062 C 105.40625 141.765625 104.640625 140.660156 103.484375 140.449219 C 102.324219 140.238281 101.21875 141.003906 101.007812 142.15625 C 100.957031 142.445312 100.914062 142.738281 100.875 143.035156 C 100.019531 149.984375 104.222656 156.675781 110.863281 158.941406 C 111.378906 159.117188 111.914062 159.203125 112.441406 159.203125 C 113.6875 159.203125 114.902344 158.722656 115.835938 157.816406 C 118.257812 155.464844 119.816406 152.324219 120.230469 148.9375 C 120.511719 146.632812 119.53125 144.320312 117.671875 142.898438 C 116.390625 141.921875 115.328125 140.640625 114.605469 139.199219 C 114.078125 138.152344 112.796875 137.730469 111.75 138.253906 C 110.699219 138.78125 110.273438 140.054688 110.800781 141.097656 C 111.8125 143.113281 113.292969 144.898438 115.082031 146.265625 C 115.75 146.773438 116.105469 147.605469 116 148.453125 C 115.703125 150.890625 114.617188 153.078125 112.863281 154.78125 C 112.695312 154.945312 112.457031 155 112.238281 154.925781 C 107.492188 153.308594 104.488281 148.523438 105.101562 143.554688 C 105.125 143.335938 105.160156 143.125 105.195312 142.914062 " fill-opacity="1" fill-rule="nonzero"/><g clip-path="url(#ad97dd75b6)"><path fill="#805ad5" d="M 158.007812 202.871094 C 156.835938 202.757812 155.792969 203.605469 155.679688 204.773438 C 155.074219 210.789062 152.054688 216.261719 147.308594 220.214844 C 148.820312 215.511719 149.890625 210.535156 150.554688 205.160156 C 153.308594 182.707031 146.007812 161.507812 129.441406 143.84375 C 123.886719 137.925781 113.914062 131.058594 104.042969 131.105469 C 98.660156 131.148438 94.070312 133.210938 90.402344 137.242188 C 88.40625 139.433594 86.726562 141.386719 85.417969 143.050781 C 83.800781 145.101562 83.261719 147.820312 83.976562 150.324219 C 84.253906 151.28125 84.550781 152.242188 84.863281 153.195312 C 83.566406 154.84375 82.105469 156.527344 80.230469 158.527344 C 79.269531 159.558594 78.808594 160.949219 78.964844 162.347656 C 79.121094 163.753906 79.886719 165.015625 81.058594 165.8125 C 82.777344 166.976562 84.542969 168.109375 85.445312 168.683594 C 88.4375 170.585938 92.167969 170.921875 95.425781 169.582031 C 97.125 168.890625 98.867188 168.25 100.605469 167.679688 C 100.960938 167.5625 101.207031 167.746094 101.328125 167.867188 C 101.445312 167.988281 101.625 168.246094 101.496094 168.601562 C 100.28125 171.964844 98.808594 175.269531 97.121094 178.417969 C 94.609375 183.109375 93.988281 188.480469 95.367188 193.550781 C 95.667969 194.679688 96.84375 195.347656 97.972656 195.042969 C 99.109375 194.734375 99.777344 193.570312 99.472656 192.4375 C 98.378906 188.421875 98.878906 184.148438 100.875 180.414062 C 102.660156 177.082031 104.21875 173.589844 105.5 170.039062 C 106.144531 168.246094 105.71875 166.28125 104.378906 164.910156 C 103.042969 163.542969 101.089844 163.058594 99.277344 163.648438 C 97.441406 164.25 95.597656 164.929688 93.808594 165.664062 C 91.832031 166.472656 89.558594 166.269531 87.730469 165.105469 C 87.023438 164.660156 85.1875 163.484375 83.453125 162.304688 C 83.253906 162.171875 83.207031 161.980469 83.195312 161.878906 C 83.179688 161.757812 83.195312 161.578125 83.34375 161.417969 C 85.65625 158.953125 87.382812 156.925781 88.941406 154.863281 C 89.363281 154.300781 89.480469 153.566406 89.253906 152.898438 C 88.828125 151.671875 88.429688 150.414062 88.070312 149.160156 C 87.726562 147.960938 87.984375 146.65625 88.761719 145.671875 C 90.015625 144.085938 91.625 142.210938 93.554688 140.09375 C 96.394531 136.972656 99.929688 135.378906 104.074219 135.347656 C 104.117188 135.347656 104.15625 135.347656 104.203125 135.347656 C 112.644531 135.347656 121.390625 141.476562 126.332031 146.742188 C 142.234375 163.695312 148.960938 183.175781 146.328125 204.644531 C 145.425781 211.992188 143.722656 218.53125 141.125 224.632812 C 140.777344 225.449219 140.976562 226.394531 141.621094 227.003906 C 142.027344 227.382812 142.550781 227.582031 143.082031 227.582031 C 143.402344 227.582031 143.726562 227.511719 144.027344 227.363281 C 153.03125 222.921875 158.972656 214.636719 159.914062 205.191406 C 160.03125 204.027344 159.175781 202.984375 158.007812 202.871094 " fill-opacity="1" fill-rule="nonzero"/></g><g clip-path="url(#8ffcaf9952)"><path fill="#805ad5" d="M 83.796875 224.359375 C 86.011719 221.027344 89.582031 219.09375 93.605469 219.050781 C 96.3125 219.015625 101.53125 220.210938 101.582031 224.925781 C 101.621094 228.402344 97.230469 230.980469 94.253906 231.628906 C 90.632812 232.417969 86.855469 231.601562 83.890625 229.390625 C 82.949219 228.691406 82.132812 227.886719 81.457031 226.996094 C 82.3125 226.296875 83.097656 225.414062 83.796875 224.359375 Z M 139.980469 196.980469 C 139.902344 196.46875 139.84375 195.945312 139.785156 195.414062 C 139.71875 194.824219 139.648438 194.214844 139.558594 193.589844 C 140.71875 190.296875 141.289062 186.847656 141.25 183.332031 L 141.246094 182.976562 C 141.15625 178.933594 138.214844 175.527344 134.25 174.878906 C 133.472656 174.75 132.695312 174.589844 131.933594 174.394531 C 129.082031 170.734375 125.636719 168.167969 121.675781 166.761719 C 121.136719 166.570312 120.546875 166.601562 120.035156 166.847656 C 119.523438 167.09375 119.128906 167.535156 118.945312 168.074219 C 118.21875 170.191406 117.734375 172.386719 117.492188 174.617188 C 116.808594 174.949219 116.140625 175.3125 115.484375 175.699219 C 113.675781 174.9375 111.789062 174.351562 109.867188 173.949219 C 109.234375 173.820312 108.574219 173.980469 108.074219 174.394531 L 107.542969 174.832031 C 107.046875 175.242188 106.765625 175.851562 106.777344 176.492188 L 106.78125 177.007812 C 106.835938 181.171875 108.144531 185.320312 110.574219 189.015625 C 111.238281 190.027344 111.835938 191.09375 112.355469 192.1875 C 113.558594 194.734375 112.542969 197.753906 110.039062 199.058594 C 107.058594 200.617188 103.222656 201.582031 99.238281 201.765625 C 98.558594 201.800781 97.71875 201.78125 97.148438 201.730469 C 95.046875 201.53125 92.933594 201.6875 90.863281 202.199219 C 87.003906 203.152344 83.371094 205.023438 80.34375 207.621094 C 80.320312 207.644531 80.292969 207.667969 80.265625 207.691406 C 80.152344 207.796875 80.050781 207.910156 79.964844 208.035156 C 76.367188 211.40625 74.515625 216.128906 74.867188 221.070312 C 74.960938 222.441406 75.242188 223.78125 75.679688 225.066406 C 75.03125 225.203125 74.359375 225.261719 73.691406 225.246094 C 71.238281 225.191406 69.015625 224.179688 67.441406 222.410156 C 65.804688 220.570312 65.011719 218.050781 65.261719 215.496094 C 65.609375 211.964844 67.5625 208.40625 70.492188 205.976562 C 71.191406 205.394531 72.03125 204.902344 72.921875 204.375 C 75.425781 202.90625 78.546875 201.070312 78.820312 196.570312 C 78.953125 194.414062 78.195312 192.378906 76.679688 190.828125 C 75.085938 189.195312 72.855469 188.304688 70.53125 188.378906 C 66.855469 188.496094 64.863281 191.027344 64.21875 193.359375 C 63.910156 194.488281 64.578125 195.65625 65.710938 195.964844 C 66.84375 196.273438 68.015625 195.609375 68.324219 194.480469 C 68.507812 193.804688 69.0625 192.667969 70.671875 192.617188 C 71.777344 192.582031 72.867188 193.003906 73.625 193.78125 C 74.097656 194.265625 74.648438 195.097656 74.574219 196.3125 C 74.441406 198.464844 73.175781 199.304688 70.761719 200.726562 C 69.765625 201.3125 68.734375 201.917969 67.769531 202.714844 C 63.945312 205.890625 61.488281 210.398438 61.023438 215.085938 C 60.660156 218.804688 61.835938 222.5 64.253906 225.222656 C 66.582031 227.839844 69.824219 229.339844 73.394531 229.472656 C 73.472656 229.480469 73.550781 229.5 73.632812 229.5 C 73.675781 229.5 73.722656 229.488281 73.765625 229.484375 C 75.082031 229.5 76.386719 229.316406 77.632812 228.941406 C 78.636719 230.398438 79.882812 231.699219 81.339844 232.789062 C 84.308594 234.996094 87.882812 236.160156 91.523438 236.160156 C 92.738281 236.160156 93.957031 236.03125 95.164062 235.773438 C 95.609375 235.671875 96.058594 235.546875 96.503906 235.40625 C 99.226562 236.507812 102.382812 237.09375 105.664062 237.09375 C 107.460938 237.09375 109.234375 236.917969 110.925781 236.574219 C 112.078125 236.339844 112.820312 235.21875 112.585938 234.070312 C 112.347656 232.921875 111.21875 232.183594 110.074219 232.417969 C 108.660156 232.707031 107.179688 232.851562 105.664062 232.851562 C 104.351562 232.851562 103.074219 232.738281 101.851562 232.527344 C 104.214844 230.574219 105.871094 227.933594 105.839844 224.882812 C 105.769531 218.183594 99.617188 214.777344 93.558594 214.808594 C 88.101562 214.867188 83.25 217.496094 80.25 222.019531 C 80.003906 222.386719 79.75 222.71875 79.488281 223.011719 C 79.292969 222.285156 79.167969 221.535156 79.113281 220.769531 C 78.839844 216.984375 80.316406 213.382812 83.152344 210.875 C 83.253906 210.785156 83.34375 210.6875 83.421875 210.582031 C 85.882812 208.546875 88.800781 207.078125 91.882812 206.316406 C 93.488281 205.917969 95.125 205.796875 96.738281 205.949219 C 97.503906 206.023438 98.566406 206.046875 99.4375 206.003906 C 104.027344 205.789062 108.496094 204.65625 112.015625 202.816406 C 116.546875 200.449219 118.382812 194.992188 116.203125 190.378906 C 115.601562 189.105469 114.902344 187.867188 114.132812 186.691406 C 112.480469 184.183594 111.464844 181.429688 111.144531 178.644531 C 112.375 179.011719 113.578125 179.46875 114.742188 180.011719 C 115.40625 180.320312 116.183594 180.269531 116.796875 179.875 C 117.933594 179.144531 119.132812 178.5 120.367188 177.957031 C 121.089844 177.636719 121.578125 176.945312 121.628906 176.15625 C 121.730469 174.636719 121.964844 173.132812 122.324219 171.660156 C 124.824219 172.957031 127.046875 174.917969 128.957031 177.503906 C 129.234375 177.882812 129.628906 178.15625 130.082031 178.285156 C 131.222656 178.609375 132.390625 178.875 133.5625 179.066406 C 135.503906 179.382812 136.945312 181.066406 136.988281 183.066406 L 136.996094 183.371094 C 137.027344 186.558594 136.484375 189.675781 135.378906 192.636719 C 135.246094 192.984375 135.210938 193.359375 135.273438 193.726562 C 135.390625 194.433594 135.476562 195.175781 135.554688 195.890625 C 135.617188 196.464844 135.6875 197.03125 135.765625 197.585938 C 137.050781 206.476562 133.445312 221.222656 124.242188 231.039062 C 123.625 231.695312 123.492188 232.675781 123.917969 233.476562 C 124.339844 234.273438 125.21875 234.714844 126.121094 234.578125 C 130.140625 233.964844 133.289062 233.007812 136.328125 231.488281 C 137.378906 230.960938 137.800781 229.683594 137.269531 228.636719 C 136.742188 227.589844 135.460938 227.171875 134.414062 227.699219 C 133.398438 228.207031 132.378906 228.640625 131.308594 229.011719 C 138.480469 218.628906 141.199219 205.441406 139.980469 196.980469 " fill-opacity="1" fill-rule="nonzero"/></g><g fill="#805ad5" fill-opacity="1"><g transform="translate(174.213581, 179.360379)"><g><path d="M 2.703125 -37.125 L 16.25 -37.125 C 20.03125 -37.125 23.085938 -36.148438 25.421875 -34.203125 C 27.765625 -32.253906 28.9375 -29.414062 28.9375 -25.6875 C 28.9375 -21.96875 27.75 -19.050781 25.375 -16.9375 C 23.007812 -14.820312 19.96875 -13.765625 16.25 -13.765625 L 11.15625 -13.765625 L 11.15625 0 L 2.703125 0 Z M 11.15625 -20.515625 L 13.546875 -20.515625 C 15.429688 -20.515625 16.984375 -20.894531 18.203125 -21.65625 C 19.421875 -22.425781 20.03125 -23.679688 20.03125 -25.421875 C 20.03125 -27.191406 19.421875 -28.457031 18.203125 -29.21875 C 16.984375 -29.988281 15.429688 -30.375 13.546875 -30.375 L 11.15625 -30.375 Z M 11.15625 -20.515625 "/></g></g></g><g fill="#805ad5" fill-opacity="1"><g transform="translate(204.18355, 179.360379)"><g><path d="M 23.9375 -37.125 L 23.9375 -29.703125 L 11.15625 -29.703125 L 11.15625 -22.3125 L 23.40625 -22.3125 L 23.40625 -14.890625 L 11.15625 -14.890625 L 11.15625 -7.421875 L 23.9375 -7.421875 L 23.9375 0 L 2.703125 0 L 2.703125 -37.125 Z M 23.9375 -37.125 "/></g></g></g><g fill="#805ad5" fill-opacity="1"><g transform="translate(230.283528, 179.360379)"><g><path d="M 0.359375 -29.703125 L 0.359375 -37.125 L 26.453125 -37.125 L 26.453125 -29.703125 L 17.640625 -29.703125 L 17.640625 0 L 9.1875 0 L 9.1875 -29.703125 Z M 0.359375 -29.703125 "/></g></g></g><g fill="#805ad5" fill-opacity="1"><g transform="translate(257.100294, 179.360379)"><g/></g></g><g fill="#805ad5" fill-opacity="1"><g transform="translate(174.213581, 229.610375)"><g><path d="M 16.375 -37.796875 C 18.382812 -37.796875 20.347656 -37.503906 22.265625 -36.921875 C 24.191406 -36.335938 25.617188 -35.757812 26.546875 -35.1875 L 27.90625 -34.296875 L 24.484375 -27.546875 C 24.210938 -27.722656 23.835938 -27.953125 23.359375 -28.234375 C 22.878906 -28.523438 21.976562 -28.910156 20.65625 -29.390625 C 19.332031 -29.867188 18.101562 -30.109375 16.96875 -30.109375 C 15.550781 -30.109375 14.460938 -29.804688 13.703125 -29.203125 C 12.941406 -28.609375 12.5625 -27.800781 12.5625 -26.78125 C 12.5625 -26.269531 12.738281 -25.796875 13.09375 -25.359375 C 13.457031 -24.921875 14.070312 -24.453125 14.9375 -23.953125 C 15.8125 -23.460938 16.578125 -23.066406 17.234375 -22.765625 C 17.890625 -22.460938 18.910156 -22.015625 20.296875 -21.421875 C 22.691406 -20.398438 24.738281 -19.007812 26.4375 -17.25 C 28.132812 -15.5 28.984375 -13.515625 28.984375 -11.296875 C 28.984375 -9.160156 28.597656 -7.296875 27.828125 -5.703125 C 27.066406 -4.117188 26.019531 -2.875 24.6875 -1.96875 C 23.351562 -1.070312 21.875 -0.410156 20.25 0.015625 C 18.625 0.453125 16.867188 0.671875 14.984375 0.671875 C 13.367188 0.671875 11.78125 0.503906 10.21875 0.171875 C 8.65625 -0.148438 7.347656 -0.554688 6.296875 -1.046875 C 5.242188 -1.546875 4.296875 -2.035156 3.453125 -2.515625 C 2.617188 -2.992188 2.007812 -3.398438 1.625 -3.734375 L 1.03125 -4.234375 L 5.265625 -11.34375 C 5.628906 -11.039062 6.125 -10.65625 6.75 -10.1875 C 7.375 -9.726562 8.488281 -9.109375 10.09375 -8.328125 C 11.707031 -7.546875 13.128906 -7.15625 14.359375 -7.15625 C 17.921875 -7.15625 19.703125 -8.367188 19.703125 -10.796875 C 19.703125 -11.304688 19.570312 -11.78125 19.3125 -12.21875 C 19.0625 -12.65625 18.613281 -13.085938 17.96875 -13.515625 C 17.332031 -13.953125 16.765625 -14.296875 16.265625 -14.546875 C 15.773438 -14.804688 14.96875 -15.195312 13.84375 -15.71875 C 12.71875 -16.25 11.882812 -16.648438 11.34375 -16.921875 C 9.09375 -18.023438 7.351562 -19.410156 6.125 -21.078125 C 4.894531 -22.742188 4.28125 -24.535156 4.28125 -26.453125 C 4.28125 -29.785156 5.507812 -32.507812 7.96875 -34.625 C 10.425781 -36.738281 13.226562 -37.796875 16.375 -37.796875 Z M 16.375 -37.796875 "/></g></g></g><g fill="#805ad5" fill-opacity="1"><g transform="translate(204.453551, 229.610375)"><g><path d="M 11.15625 -14.890625 L 11.15625 0 L 2.703125 0 L 2.703125 -37.125 L 11.15625 -37.125 L 11.15625 -22.3125 L 23.125 -22.3125 L 23.125 -37.125 L 31.59375 -37.125 L 31.59375 0 L 23.125 0 L 23.125 -14.890625 Z M 11.15625 -14.890625 "/></g></g></g><g fill="#805ad5" fill-opacity="1"><g transform="translate(238.743515, 229.610375)"><g><path d="M 1.03125 -18.578125 C 1.03125 -23.953125 2.859375 -28.5 6.515625 -32.21875 C 10.179688 -35.9375 14.59375 -37.796875 19.75 -37.796875 C 24.945312 -37.796875 29.359375 -35.941406 32.984375 -32.234375 C 36.617188 -28.535156 38.4375 -23.984375 38.4375 -18.578125 C 38.4375 -13.148438 36.648438 -8.582031 33.078125 -4.875 C 29.503906 -1.175781 25.0625 0.671875 19.75 0.671875 C 14.320312 0.671875 9.84375 -1.160156 6.3125 -4.828125 C 2.789062 -8.503906 1.03125 -13.085938 1.03125 -18.578125 Z M 10.171875 -18.578125 C 10.171875 -16.628906 10.46875 -14.851562 11.0625 -13.25 C 11.664062 -11.644531 12.71875 -10.285156 14.21875 -9.171875 C 15.71875 -8.066406 17.5625 -7.515625 19.75 -7.515625 C 22.90625 -7.515625 25.285156 -8.59375 26.890625 -10.75 C 28.492188 -12.914062 29.296875 -15.523438 29.296875 -18.578125 C 29.296875 -21.609375 28.476562 -24.210938 26.84375 -26.390625 C 25.207031 -28.566406 22.84375 -29.65625 19.75 -29.65625 C 16.695312 -29.65625 14.335938 -28.566406 12.671875 -26.390625 C 11.003906 -24.210938 10.171875 -21.609375 10.171875 -18.578125 Z M 10.171875 -18.578125 "/></g></g></g><g fill="#805ad5" fill-opacity="1"><g transform="translate(278.208474, 229.610375)"><g><path d="M 2.703125 -37.125 L 16.25 -37.125 C 20.03125 -37.125 23.085938 -36.148438 25.421875 -34.203125 C 27.765625 -32.253906 28.9375 -29.414062 28.9375 -25.6875 C 28.9375 -21.96875 27.75 -19.050781 25.375 -16.9375 C 23.007812 -14.820312 19.96875 -13.765625 16.25 -13.765625 L 11.15625 -13.765625 L 11.15625 0 L 2.703125 0 Z M 11.15625 -20.515625 L 13.546875 -20.515625 C 15.429688 -20.515625 16.984375 -20.894531 18.203125 -21.65625 C 19.421875 -22.425781 20.03125 -23.679688 20.03125 -25.421875 C 20.03125 -27.191406 19.421875 -28.457031 18.203125 -29.21875 C 16.984375 -29.988281 15.429688 -30.375 13.546875 -30.375 L 11.15625 -30.375 Z M 11.15625 -20.515625 "/></g></g></g></svg>